<mxfile host="65bd71144e">
    <diagram id="R5AOQNsurblLk1bkEFmX" name="Page-1">
        <mxGraphModel dx="1658" dy="949" grid="1" gridSize="10" guides="1" tooltips="1" connect="1" arrows="1" fold="1" page="1" pageScale="1" pageWidth="850" pageHeight="1100" math="0" shadow="0">
            <root>
                <mxCell id="0"/>
                <mxCell id="1" parent="0"/>
                <mxCell id="3" value="" style="swimlane;startSize=0;" vertex="1" parent="1">
                    <mxGeometry x="240" y="10" width="350" height="1030" as="geometry"/>
                </mxCell>
                <mxCell id="4" value="Login" style="ellipse;whiteSpace=wrap;html=1;" vertex="1" parent="3">
                    <mxGeometry x="40" y="20" width="100" height="50" as="geometry"/>
                </mxCell>
                <mxCell id="5" value="Register" style="ellipse;whiteSpace=wrap;html=1;" vertex="1" parent="3">
                    <mxGeometry x="170" y="80" width="100" height="50" as="geometry"/>
                </mxCell>
                <mxCell id="6" value="&amp;lt;&amp;lt;include&amp;gt;&amp;gt;" style="edgeStyle=none;html=1;endArrow=open;verticalAlign=bottom;dashed=1;labelBackgroundColor=none;entryX=0;entryY=0;entryDx=0;entryDy=0;exitX=1;exitY=1;exitDx=0;exitDy=0;" edge="1" parent="3" source="4" target="5">
                    <mxGeometry width="160" relative="1" as="geometry">
                        <mxPoint x="160" y="50" as="sourcePoint"/>
                        <mxPoint x="320" y="50" as="targetPoint"/>
                    </mxGeometry>
                </mxCell>
                <mxCell id="7" value="Browse Laptops and Computer Parts" style="ellipse;whiteSpace=wrap;html=1;" vertex="1" parent="3">
                    <mxGeometry x="80" y="160" width="140" height="70" as="geometry"/>
                </mxCell>
                <mxCell id="8" value="Add Laptop And Parts To Cart" style="ellipse;whiteSpace=wrap;html=1;" vertex="1" parent="3">
                    <mxGeometry x="80" y="250" width="140" height="70" as="geometry"/>
                </mxCell>
                <mxCell id="9" value="View Cart" style="ellipse;whiteSpace=wrap;html=1;" vertex="1" parent="3">
                    <mxGeometry x="80" y="340" width="140" height="70" as="geometry"/>
                </mxCell>
                <mxCell id="11" value="Pay The Amount" style="ellipse;whiteSpace=wrap;html=1;" vertex="1" parent="3">
                    <mxGeometry x="80" y="440" width="140" height="70" as="geometry"/>
                </mxCell>
                <mxCell id="12" value="Verify Payment" style="ellipse;whiteSpace=wrap;html=1;" vertex="1" parent="3">
                    <mxGeometry x="185" y="550" width="140" height="70" as="geometry"/>
                </mxCell>
                <mxCell id="13" value="&amp;lt;&amp;lt;include&amp;gt;&amp;gt;" style="edgeStyle=none;html=1;endArrow=open;verticalAlign=bottom;dashed=1;labelBackgroundColor=none;exitX=1;exitY=1;exitDx=0;exitDy=0;" edge="1" parent="3" source="11" target="12">
                    <mxGeometry width="160" relative="1" as="geometry">
                        <mxPoint x="225" y="576" as="sourcePoint"/>
                        <mxPoint x="285" y="600" as="targetPoint"/>
                    </mxGeometry>
                </mxCell>
                <mxCell id="14" value="Build A PC (Select Parts To Build A PC)" style="ellipse;whiteSpace=wrap;html=1;" vertex="1" parent="3">
                    <mxGeometry x="80" y="640" width="140" height="70" as="geometry"/>
                </mxCell>
                <mxCell id="15" value="Checkout and Payment" style="ellipse;whiteSpace=wrap;html=1;" vertex="1" parent="3">
                    <mxGeometry x="80" y="750" width="140" height="70" as="geometry"/>
                </mxCell>
                <mxCell id="16" value="Verify Payment" style="ellipse;whiteSpace=wrap;html=1;" vertex="1" parent="3">
                    <mxGeometry x="185" y="840" width="140" height="70" as="geometry"/>
                </mxCell>
                <mxCell id="17" value="&amp;lt;&amp;lt;include&amp;gt;&amp;gt;" style="edgeStyle=none;html=1;endArrow=open;verticalAlign=bottom;dashed=1;labelBackgroundColor=none;exitX=1;exitY=1;exitDx=0;exitDy=0;entryX=0.301;entryY=0.041;entryDx=0;entryDy=0;entryPerimeter=0;" edge="1" parent="3" source="15" target="16">
                    <mxGeometry width="160" relative="1" as="geometry">
                        <mxPoint x="260" y="860" as="sourcePoint"/>
                        <mxPoint x="294" y="912" as="targetPoint"/>
                    </mxGeometry>
                </mxCell>
                <mxCell id="18" value="View Order" style="ellipse;whiteSpace=wrap;html=1;" vertex="1" parent="3">
                    <mxGeometry x="80" y="940" width="140" height="70" as="geometry"/>
                </mxCell>
                <mxCell id="20" style="edgeStyle=none;html=1;entryX=0;entryY=0.5;entryDx=0;entryDy=0;" edge="1" parent="1" source="19" target="4">
                    <mxGeometry relative="1" as="geometry"/>
                </mxCell>
                <mxCell id="21" style="edgeStyle=none;html=1;entryX=0;entryY=0.5;entryDx=0;entryDy=0;" edge="1" parent="1" source="19" target="7">
                    <mxGeometry relative="1" as="geometry"/>
                </mxCell>
                <mxCell id="22" style="edgeStyle=none;html=1;entryX=0;entryY=0.5;entryDx=0;entryDy=0;" edge="1" parent="1" source="19" target="8">
                    <mxGeometry relative="1" as="geometry"/>
                </mxCell>
                <mxCell id="23" style="edgeStyle=none;html=1;entryX=0;entryY=0.5;entryDx=0;entryDy=0;" edge="1" parent="1" source="19" target="9">
                    <mxGeometry relative="1" as="geometry"/>
                </mxCell>
                <mxCell id="25" style="edgeStyle=none;html=1;entryX=0;entryY=0.5;entryDx=0;entryDy=0;" edge="1" parent="1" source="19" target="14">
                    <mxGeometry relative="1" as="geometry"/>
                </mxCell>
                <mxCell id="26" style="edgeStyle=none;html=1;entryX=0;entryY=0.5;entryDx=0;entryDy=0;" edge="1" parent="1" source="19" target="15">
                    <mxGeometry relative="1" as="geometry"/>
                </mxCell>
                <mxCell id="27" style="edgeStyle=none;html=1;entryX=0;entryY=0.5;entryDx=0;entryDy=0;" edge="1" parent="1" source="19" target="18">
                    <mxGeometry relative="1" as="geometry"/>
                </mxCell>
                <mxCell id="19" value="User" style="shape=umlActor;html=1;verticalLabelPosition=bottom;verticalAlign=top;align=center;" vertex="1" parent="1">
                    <mxGeometry x="80" y="550" width="30" height="60" as="geometry"/>
                </mxCell>
                <mxCell id="24" style="edgeStyle=none;html=1;entryX=-0.006;entryY=0.625;entryDx=0;entryDy=0;entryPerimeter=0;" edge="1" parent="1" source="19" target="11">
                    <mxGeometry relative="1" as="geometry"/>
                </mxCell>
                <mxCell id="29" style="edgeStyle=none;html=1;entryX=1;entryY=0.5;entryDx=0;entryDy=0;" edge="1" parent="1" source="28" target="12">
                    <mxGeometry relative="1" as="geometry"/>
                </mxCell>
                <mxCell id="30" style="edgeStyle=none;html=1;entryX=1;entryY=0.5;entryDx=0;entryDy=0;" edge="1" parent="1" source="28" target="16">
                    <mxGeometry relative="1" as="geometry"/>
                </mxCell>
                <mxCell id="28" value="Admin" style="shape=umlActor;html=1;verticalLabelPosition=bottom;verticalAlign=top;align=center;" vertex="1" parent="1">
                    <mxGeometry x="690" y="700" width="30" height="60" as="geometry"/>
                </mxCell>
            </root>
        </mxGraphModel>
    </diagram>
</mxfile>